<?xml version="1.0" encoding="UTF-8" standalone="no"?>
<!-- Created with Inkscape (http://www.inkscape.org/) -->

<svg
   width="128.00002"
   height="127.99999"
   viewBox="0 0 33.866671 33.866665"
   version="1.1"
   id="svg1"
   xml:space="preserve"
   xmlns:xlink="http://www.w3.org/1999/xlink"
   xmlns="http://www.w3.org/2000/svg"
   xmlns:svg="http://www.w3.org/2000/svg"><defs
     id="defs1"><path
       d="M 0,0 H 108 V 108 H 0 Z"
       id="path-1" /><filter
       x="-0.13790729"
       y="-0.10856567"
       width="1.2758146"
       height="1.262367"
       filterUnits="objectBoundingBox"
       id="filter-2"><feOffset
         dx="0"
         dy="2"
         in="SourceAlpha"
         result="shadowOffsetOuter1"
         id="feOffset1" /><feGaussianBlur
         stdDeviation="2"
         in="shadowOffsetOuter1"
         result="shadowBlurOuter1"
         id="feGaussianBlur1" /><feColorMatrix
         values="0 0 0 0 0   0 0 0 0 0   0 0 0 0 0  0 0 0 0.101262019 0"
         type="matrix"
         in="shadowBlurOuter1"
         result="shadowMatrixOuter1"
         id="feColorMatrix1" /><feMerge
         id="feMerge2"><feMergeNode
           in="shadowMatrixOuter1"
           id="feMergeNode1" /><feMergeNode
           in="SourceGraphic"
           id="feMergeNode2" /></feMerge></filter><clipPath
       clipPathUnits="userSpaceOnUse"
       id="clipPath3"><rect
         ry="2.096508"
         rx="2.096508"
         y="3.3060329"
         x="3.3060381"
         height="27.254602"
         width="27.254602"
         id="rect3"
         style="display:inline;opacity:1;fill:#000000;fill-opacity:1;stroke:currentColor;stroke-width:0.261937;stroke-linecap:butt;stroke-linejoin:miter;stroke-miterlimit:4;stroke-dasharray:none;stroke-dashoffset:0;stroke-opacity:1;marker:none;marker-start:none;marker-mid:none;marker-end:none;paint-order:normal;enable-background:new" /></clipPath></defs><g
     id="g3"
     clip-path="url(#clipPath3)"
     style="display:inline"><g
       id="g2"><g
         id="view-space"
         stroke="none"
         fill="none"
         stroke-width="1"
         transform="matrix(0.34956642,0,0,0.34768946,-11.76684,-13.586436)"><g
           id="don't-edit-layer-preview"
           fill-rule="evenodd"
           transform="matrix(1.1211248,0,0,1.1047566,21.566757,28.107494)"><g
             id="don't-edit-combined-layers"><g
               id="background-layer"
               xlink:href="#path-1"><use
                 fill="#164a7f"
                 xlink:href="#path-1"
                 id="use2" /><use
                 xlink:href="#path-1"
                 id="use3" /><rect
                 id="Rectangle"
                 fill="#219bcc"
                 x="0"
                 y="0"
                 width="108"
                 height="108" /></g><g
               id="Group"
               filter="url(#filter-2)"
               transform="translate(35.9999,30)"><path
                 d="m 19.826776,2.7539013 c 7.793009,0 14.110491,6.317482 14.110491,14.1104907 v 6.584896 h -5.644196 v -6.584896 c 0,-4.592309 -3.656324,-8.3306374 -8.216669,-8.4626848 l -0.249626,-0.00361 h -2.822098 c -4.592309,0 -8.330638,3.6563228 -8.4626854,8.2166678 l -0.00361,0.249626 v 6.584896 h -5.644196 v -6.584896 c 0,-7.7930077 6.3174821,-14.1104902 14.1104914,-14.1104902 z"
                 id="Combined-Shape"
                 fill="#191c1e"
                 fill-rule="nonzero"
                 style="stroke-width:0.940699" /><path
                 d="m 35.818666,33.169848 c 0,7.619831 -6.177094,13.796925 -13.796925,13.796925 h -7.212028 c -7.6198315,0 -13.7969252,-6.177094 -13.7969252,-13.796925 L 1.012675,24.389987 C 1.0127878,22.311852 2.6974497,20.62719 4.7755854,20.62719 H 32.055868 c 2.078136,0 3.762798,1.684662 3.762798,3.762797 z"
                 id="path3"
                 fill="#c1e8ff"
                 style="stroke-width:0.940699" /><path
                 d="m 33.937267,33.169848 c 0,7.619831 -6.177094,13.796925 -13.796925,13.796925 h -5.330629 c -7.6198315,0 -13.7969252,-6.177094 -13.7969252,-13.796925 v -8.779861 c 0,-2.078135 1.6846619,-3.762797 3.7627976,-3.762797 H 30.174469 c 2.078136,0 3.762798,1.684662 3.762798,3.762797 z"
                 id="path4"
                 fill="#e0f3ff"
                 style="stroke-width:0.940699" /><path
                 d="m 30.174469,20.62719 c 2.078136,0 3.762798,1.684662 3.762798,3.762797 v 8.779861 c 0,7.619831 -6.177094,13.796925 -13.796925,13.796925 h -3.44923 c -7.6198317,0 -13.7969254,-6.177094 -13.7969254,-13.796925 v -8.779861 c 0,-2.078135 1.6846619,-3.762797 3.7627976,-3.762797 z m -6.584895,5.644196 H 13.24188 v 14.110491 h 10.347694 z"
                 id="path5"
                 fill="#e0f3ff"
                 style="stroke-width:0.940699" /><g
                 id="g7"
                 transform="matrix(0.87341563,0,0,1,13.181553,25.483387)"
                 fill="#191c1e"
                 style="display:inline"><path
                   d="m 6,0 c 3.3137085,0 6,2.3505051 6,5.25 0,2.0940797 -1.401183,3.9018035 -3.4279405,4.7445143 L 8.5714286,13.5 c 0,0.828427 -0.6715729,1.5 -1.5,1.5 H 4.9285714 c -0.8284271,0 -1.5,-0.671573 -1.5,-1.5 L 3.4279405,9.9945143 C 1.4011829,9.1518035 0,7.3440797 0,5.25 0,2.3505051 2.6862915,0 6,0 Z"
                   id="path7" /></g></g></g></g></g></g></g></svg>
