<?xml version="1.0" encoding="UTF-8" standalone="no"?>
<svg width="780" height="780" viewBox="0 0 780 780" version="1.1" id="svg3"
    sodipodi:docname="ic_card_discover.svg"
    inkscape:version="1.3.2 (091e20ef0f, 2023-11-25, custom)"
    xmlns:inkscape="http://www.inkscape.org/namespaces/inkscape"
    xmlns:sodipodi="http://sodipodi.sourceforge.net/DTD/sodipodi-0.dtd"
    xmlns="http://www.w3.org/2000/svg">
    <defs id="defs3" />
    <sodipodi:namedview id="namedview3" pagecolor="#ffffff" bordercolor="#666666"
        borderopacity="1.0" inkscape:showpageshadow="2" inkscape:pageopacity="0.0"
        inkscape:pagecheckerboard="0" inkscape:deskcolor="#d1d1d1" inkscape:zoom="0.77286771"
        inkscape:cx="182.43743" inkscape:cy="243.89685" inkscape:window-width="2560"
        inkscape:window-height="1305" inkscape:window-x="0" inkscape:window-y="0"
        inkscape:window-maximized="1" inkscape:current-layer="g3" />
    <g id="g4" transform="translate(0,139.5)">
        <g fill-rule="evenodd" id="g3">
            <path d="M 0,-139.5 V 0 0 501 640.5 H 780 V 0 -139.5 Z" fill="#4d4d4d" id="path1"
                sodipodi:nodetypes="ccccccccc" />
            <path
                d="m 327.152,161.893 c 8.837,0 16.248,1.784 25.268,6.09 v 22.751 c -8.544,-7.863 -15.955,-11.154 -25.756,-11.154 -19.264,0 -34.414,15.015 -34.414,34.05 0,20.075 14.681,34.196 35.37,34.196 9.312,0 16.586,-3.12 24.8,-10.857 v 22.763 c -9.341,4.14 -16.911,5.776 -25.756,5.776 -31.278,0 -55.582,-22.596 -55.582,-51.737 0,-28.826 24.951,-51.878 56.07,-51.878 z m -97.113,0.627 c 11.546,0 22.11,3.72 30.943,10.994 l -10.748,13.248 c -5.35,-5.646 -10.41,-8.028 -16.564,-8.028 -8.853,0 -15.3,4.745 -15.3,10.989 0,5.354 3.619,8.188 15.944,12.482 23.365,8.044 30.29,15.176 30.29,30.926 0,19.193 -14.976,32.553 -36.32,32.553 -15.63,0 -26.994,-5.795 -36.458,-18.872 l 13.268,-12.03 c 4.73,8.61 12.622,13.222 22.42,13.222 9.163,0 15.947,-5.952 15.947,-13.984 0,-4.164 -2.055,-7.734 -6.158,-10.258 -2.066,-1.195 -6.158,-2.977 -14.2,-5.647 -19.291,-6.538 -25.91,-13.527 -25.91,-27.185 0,-16.225 14.214,-28.41 32.846,-28.41 z m 234.723,1.728 h 22.437 l 28.084,66.592 28.446,-66.592 h 22.267 L 520.502,265.934 H 509.449 Z M 67.414,164.4 h 30.15 c 33.312,0 56.534,20.382 56.534,49.641 0,14.59 -7.104,28.696 -19.118,38.057 -10.108,7.901 -21.626,11.445 -37.574,11.445 H 67.414 Z m 96.135,0 h 20.54 v 99.143 h -20.54 z m 411.734,0 h 58.252 v 16.8 H 595.81 v 22.005 h 36.336 v 16.791 H 595.81 v 26.762 h 37.726 v 16.785 H 575.284 V 164.4 Z m 71.858,0 h 30.455 c 23.69,0 37.265,10.71 37.265,29.272 0,15.18 -8.514,25.14 -23.986,28.105 l 33.148,41.766 h -25.26 l -28.429,-39.828 h -2.678 v 39.828 h -20.515 z m 20.515,15.616 v 30.025 h 6.002 c 13.117,0 20.069,-5.362 20.069,-15.328 0,-9.648 -6.954,-14.697 -19.745,-14.697 z M 87.94,181.199 v 65.559 h 5.512 c 13.273,0 21.656,-2.394 28.11,-7.88 7.103,-5.955 11.376,-15.465 11.376,-24.98 0,-9.499 -4.273,-18.725 -11.376,-24.681 -6.785,-5.78 -14.837,-8.018 -28.11,-8.018 z"
                fill="#ffffff" id="path2" />
            <path
                d="m 415.13,161.213 c 30.941,0 56.022,23.58 56.022,52.709 v 0.033 c 0,29.13 -25.081,52.742 -56.021,52.742 -30.94,0 -56.022,-23.613 -56.022,-52.742 v -0.033 c 0,-29.13 25.082,-52.71 56.022,-52.71 z M 779.983,288.36 C 753.933,306.69 337.677,577.217 0,640.5 H 724.023 780 L 779.982,0 Z"
                fill="#f47216" id="path3" sodipodi:nodetypes="cssssscccccccc" />
        </g>
    </g>
</svg>
