<?xml version="1.0" encoding="UTF-8" standalone="no"?>
<svg width="780" height="780" enable-background="new 0 0 780 500" version="1.1"
    viewBox="0 0 780 780" xml:space="preserve" id="svg1" sodipodi:docname="ic_card_amex.svg"
    inkscape:version="1.3.2 (091e20ef0f, 2023-11-25, custom)"
    xmlns:inkscape="http://www.inkscape.org/namespaces/inkscape"
    xmlns:sodipodi="http://sodipodi.sourceforge.net/DTD/sodipodi-0.dtd"
    xmlns="http://www.w3.org/2000/svg"><defs
     id="defs1" />
    <sodipodi:namedview id="namedview1" pagecolor="#ffffff" bordercolor="#666666"
        borderopacity="1.0" inkscape:showpageshadow="2" inkscape:pageopacity="0.0"
        inkscape:pagecheckerboard="0" inkscape:deskcolor="#d1d1d1" inkscape:zoom="1.0525641"
        inkscape:cx="505.4324" inkscape:cy="478.35566" inkscape:window-width="2560"
        inkscape:window-height="1305" inkscape:window-x="0" inkscape:window-y="0"
        inkscape:window-maximized="1" inkscape:current-layer="g1" />
    <g id="g1" transform="translate(0,139.95175)"><rect
       width="780"
       height="780"
       fill="#2557d6"
       id="rect1"
       x="0"
       y="-139.95175" />
        <path
            d="m 0.253,235.69 h 37.441 l 8.442,-19.51 h 18.9 l 8.42,19.51 h 73.668 v -14.915 l 6.576,14.98 h 38.243 l 6.576,-15.202 v 15.138 h 183.08 l -0.085,-32.026 h 3.542 c 2.479,0.083 3.204,0.302 3.204,4.226 v 27.8 h 94.689 v -7.455 c 7.639,3.92 19.518,7.455 35.148,7.455 h 39.836 l 8.525,-19.51 h 18.9 l 8.337,19.51 h 76.765 v -18.532 l 11.626,18.532 h 61.515 v -122.51 h -60.88 v 14.468 l -8.522,-14.468 h -62.471 v 14.468 L 603.9,113.181 h -84.38 c -14.123,0 -26.539,1.889 -36.569,7.153 v -7.153 h -58.229 v 7.153 c -6.383,-5.426 -15.079,-7.153 -24.75,-7.153 h -212.74 l -14.274,31.641 -14.659,-31.641 H 91.294 v 14.468 L 83.932,113.181 H 26.787 L 0.248,171.427 v 64.261 h 0.003 z m 236.34,-17.67 h -22.464 l -0.083,-68.794 -31.775,68.793 h -19.24 l -31.858,-68.854 v 68.854 h -44.57 l -8.42,-19.592 H 32.556 l -8.505,19.592 H 0.25 L 39.491,130.182 H 72.05 l 37.269,83.164 v -83.164 h 35.766 l 28.678,59.587 26.344,-59.587 h 36.485 z M 70.693,180.197 55.695,145.18 40.78,180.197 Z m 255.3,37.821 H 252.79 v -87.837 h 73.203 v 18.291 h -51.289 v 15.833 h 50.06 v 18.005 h -50.061 v 17.542 h 51.289 z m 103.16,-64.18 c 0,14.004 -9.755,21.24 -15.439,23.412 4.794,1.748 8.891,4.838 10.84,7.397 3.094,4.369 3.628,8.271 3.628,16.116 v 17.255 h -22.104 l -0.083,-11.077 c 0,-5.285 0.528,-12.886 -3.458,-17.112 -3.202,-3.09 -8.083,-3.76 -15.973,-3.76 h -23.523 v 31.95 h -21.914 v -87.838 h 50.401 c 11.199,0 19.451,0.283 26.535,4.207 6.933,3.924 11.09,9.652 11.09,19.45 z m -27.699,13.042 c -3.013,1.752 -6.573,1.81 -10.841,1.81 h -26.62 v -19.51 h 26.982 c 3.818,0 7.804,0.164 10.393,1.584 2.842,1.28 4.601,4.003 4.601,7.765 0,3.84 -1.674,6.929 -4.515,8.351 z m 62.844,51.138 H 441.94 v -87.837 h 22.358 z m 259.56,0 H 692.805 L 651.27,152.091 v 65.927 h -44.628 l -8.527,-19.592 h -45.521 l -8.271,19.592 h -25.648 c -10.649,0 -24.138,-2.257 -31.773,-9.715 -7.701,-7.458 -11.708,-17.56 -11.708,-33.533 0,-13.027 2.395,-24.936 11.812,-34.347 7.085,-7.01 18.18,-10.242 33.28,-10.242 h 21.215 v 18.821 H 520.73 c -7.997,0 -12.514,1.14 -16.862,5.203 -3.735,3.699 -6.298,10.69 -6.298,19.897 0,9.41 1.951,16.196 6.023,20.628 3.373,3.476 9.506,4.53 15.272,4.53 h 9.842 l 30.884,-69.076 h 32.835 l 37.102,83.081 v -83.08 h 33.366 l 38.519,61.174 v -61.174 h 22.445 z m -133.2,-37.82 -15.165,-35.017 -15.081,35.017 z m 189.04,178.08 c -5.322,7.457 -15.694,11.238 -29.736,11.238 h -42.319 v -18.84 h 42.147 c 4.181,0 7.106,-0.527 8.868,-2.175 1.665,-1.474 2.605,-3.554 2.591,-5.729 0,-2.561 -1.064,-4.593 -2.677,-5.811 -1.59,-1.342 -3.904,-1.95 -7.722,-1.95 -20.574,-0.67 -46.244,0.608 -46.244,-27.194 0,-12.742 8.443,-26.156 31.439,-26.156 h 43.649 v -17.479 h -40.557 c -12.237,0 -21.129,2.81 -27.425,7.174 v -7.175 h -59.985 c -9.595,0 -20.854,2.279 -26.179,7.175 v -7.175 h -107.12 v 7.175 c -8.524,-5.892 -22.908,-7.175 -29.549,-7.175 h -70.656 v 7.175 c -6.745,-6.258 -21.742,-7.175 -30.886,-7.175 H 308.26 l -18.094,18.764 -16.949,-18.764 h -118.13 v 122.59 h 115.9 l 18.646,-19.062 17.565,19.062 71.442,0.061 v -28.838 h 7.021 c 9.479,0.14 20.66,-0.228 30.523,-4.312 v 33.085 h 58.928 v -31.952 h 2.842 c 3.628,0 3.985,0.144 3.985,3.615 v 28.333 h 179.01 c 11.364,0 23.244,-2.786 29.824,-7.845 v 7.845 h 56.78 c 11.815,0 23.354,-1.587 32.134,-5.649 l 0.002,-22.84 z m -354.94,-47.155 c 0,24.406 -19.005,29.445 -38.159,29.445 h -27.343 v 29.469 h -42.591 l -26.984,-29.086 -28.042,29.086 h -86.802 v -87.859 h 88.135 l 26.961,28.799 27.875,-28.799 h 70.021 c 17.389,0 36.929,4.613 36.929,28.945 z m -174.22,40.434 H 196.66 v -17.48 h 48.11 v -17.926 h -48.11 v -15.974 h 54.939 l 23.969,25.604 z m 86.81,10.06 -33.644,-35.789 33.644,-34.65 z m 49.757,-39.066 h -28.318 v -22.374 h 28.572 c 7.912,0 13.404,3.09 13.404,10.772 0,7.599 -5.238,11.602 -13.658,11.602 z m 148.36,-40.373 h 73.138 v 18.17 h -51.315 v 15.973 h 50.062 v 17.926 h -50.062 v 17.48 l 51.314,0.08 v 18.23 h -73.139 z m -28.119,47.029 c 4.878,1.725 8.865,4.816 10.734,7.375 3.095,4.291 3.542,8.294 3.631,16.037 v 17.418 h -22.002 v -10.992 c 0,-5.286 0.531,-13.112 -3.542,-17.198 -3.201,-3.147 -8.083,-3.899 -16.076,-3.899 h -23.42 v 32.09 h -22.02 v -87.859 h 50.594 c 11.093,0 19.173,0.47 26.366,4.146 6.915,4.004 11.266,9.487 11.266,19.511 -10e-4,14.022 -9.764,21.178 -15.531,23.371 z M 494.961,318.1 c -2.932,1.667 -6.556,1.811 -10.818,1.811 h -26.622 v -19.732 h 26.982 c 3.902,0 7.807,0.08 10.458,1.587 2.84,1.423 4.538,4.146 4.538,7.903 0,3.758 -1.699,6.786 -4.538,8.431 z m 197.82,5.597 c 4.27,4.229 6.554,9.571 6.554,18.613 0,18.9 -12.322,27.723 -34.425,27.723 h -42.68 v -18.84 h 42.51 c 4.157,0 7.104,-0.525 8.95,-2.175 1.508,-1.358 2.589,-3.333 2.589,-5.729 0,-2.561 -1.17,-4.592 -2.675,-5.811 -1.675,-1.34 -3.986,-1.949 -7.803,-1.949 -20.493,-0.67 -46.157,0.609 -46.157,-27.192 0,-12.744 8.355,-26.158 31.33,-26.158 h 43.932 v 18.7 h -40.198 c -3.984,0 -6.575,0.145 -8.779,1.587 -2.4,1.422 -3.29,3.534 -3.29,6.319 0,3.314 2.037,5.57 4.795,6.546 2.311,0.77 4.795,0.995 8.526,0.995 l 11.797,0.306 c 11.895,0.276 20.061,2.248 25.024,7.065 z m 86.955,-23.52 h -39.938 c -3.986,0 -6.638,0.144 -8.867,1.587 -2.312,1.423 -3.202,3.534 -3.202,6.322 0,3.314 1.951,5.568 4.791,6.544 2.312,0.771 4.795,0.996 8.444,0.996 l 11.878,0.304 c 11.983,0.284 19.982,2.258 24.86,7.072 0.891,0.67 1.422,1.422 2.033,2.175 v -25 z"
            fill="#ffffff" id="path1" /></g></svg>
