<?xml version="1.0" encoding="UTF-8" standalone="no"?>
<svg width="780" height="780" enable-background="new 0 0 780 500" version="1.1"
    viewBox="0 0 780 780" xml:space="preserve" id="svg6" sodipodi:docname="ic_card_jcb.svg"
    inkscape:version="1.3.2 (091e20ef0f, 2023-11-25, custom)"
    xmlns:inkscape="http://www.inkscape.org/namespaces/inkscape"
    xmlns:sodipodi="http://sodipodi.sourceforge.net/DTD/sodipodi-0.dtd"
    xmlns="http://www.w3.org/2000/svg"><defs
     id="defs6" />
    <sodipodi:namedview id="namedview6" pagecolor="#ffffff" bordercolor="#666666"
        borderopacity="1.0" inkscape:showpageshadow="2" inkscape:pageopacity="0.0"
        inkscape:pagecheckerboard="0" inkscape:deskcolor="#d1d1d1" inkscape:zoom="0.5465"
        inkscape:cx="49.405306" inkscape:cy="291.85727" inkscape:window-width="2560"
        inkscape:window-height="1305" inkscape:window-x="0" inkscape:window-y="0"
        inkscape:window-maximized="1" inkscape:current-layer="g6" />
    <linearGradient id="c" x1="83.976997" x2="84.976997" y1="645.5" y2="645.5"
        gradientTransform="matrix(132.87,0,0,-323.02,-10686,208760)" gradientUnits="userSpaceOnUse"><stop
       stop-color="#007B40"
       offset="0"
       id="stop1" />
        <stop stop-color="#55B330" offset="1" id="stop2" /></linearGradient>
    <linearGradient id="b" x1="83.984001" x2="84.978996" y1="645.5" y2="645.5"
        gradientTransform="matrix(133.43,0,0,-323.02,-11031,208760)" gradientUnits="userSpaceOnUse"><stop
       stop-color="#1D2970"
       offset="0"
       id="stop3" />
        <stop stop-color="#006DBA" offset="1" id="stop4" /></linearGradient>
    <linearGradient id="a" x1="83.977997" x2="84.976997" y1="645.5" y2="645.5"
        gradientTransform="matrix(132.96,0,0,-323.03,-10842,208770)" gradientUnits="userSpaceOnUse"><stop
       stop-color="#6E2B2F"
       offset="0"
       id="stop5" />
        <stop stop-color="#E30138" offset="1" id="stop6" /></linearGradient>
    <g id="g6" transform="translate(0,140)"><rect
       width="780"
       height="780"
       fill="#0e4c96"
       id="rect1"
       x="0"
       y="-140" />
        <path
            d="m 632.24,361.27 c 0,41.615 -33.729,75.36 -75.36,75.36 H 147.75 V 138.75 c 0,-41.626 33.733,-75.37 75.365,-75.37 l 409.12,-0.001 10e-4,297.89 z"
            fill="#ffffff" id="path1" />
        <path
            d="m 498.86,256.54 c 11.684,0.253 23.437,-0.516 35.076,0.4 11.787,2.199 14.629,20.043 4.156,25.888 -7.141,3.851 -15.633,1.433 -23.379,2.113 h -15.852 z m 41.833,-32.145 c 2.596,9.164 -6.238,17.392 -15.066,16.13 H 498.86 c 0.185,-8.642 -0.368,-18.021 0.271,-26.208 10.725,0.301 21.549,-0.616 32.21,0.479 4.581,1.151 8.414,4.917 9.352,9.599 z m 64.428,-135.9 c 0.498,17.501 0.071,35.927 0.214,53.783 -0.035,72.596 0.072,145.19 -0.055,217.79 -0.47,27.207 -24.582,50.844 -51.601,51.387 -27.046,0.111 -54.095,0.016 -81.142,0.047 v -109.75 c 29.47,-0.154 58.959,0.307 88.417,-0.232 13.667,-0.859 28.632,-9.875 29.27,-24.914 1.61,-15.103 -12.632,-25.551 -26.152,-27.201 -5.198,-0.135 -5.044,-1.516 0,-2.117 12.892,-2.787 23.02,-16.133 19.226,-29.499 -3.236,-14.058 -18.772,-19.499 -31.697,-19.472 -26.351,-0.18 -52.709,-0.026 -79.062,-0.077 0.172,-20.489 -0.354,-41 0.286,-61.474 2.087,-26.716 26.806,-48.747 53.447,-48.27 h 78.849 z"
            fill="url(#c)" id="path2" style="fill:url(#c)" />
        <path
            d="m 174.74,139.54 c 0.674,-27.163 24.889,-50.611 51.875,-51.007 26.944,-0.083 53.891,-0.012 80.837,-0.036 -0.074,90.885 0.148,181.78 -0.112,272.66 -1.038,26.835 -24.99,49.835 -51.679,50.308 -26.996,0.099 -53.995,0.014 -80.992,0.042 v -113.45 c 26.223,6.194 53.722,8.832 80.473,4.721 15.993,-2.574 33.488,-10.424 38.902,-27.014 3.986,-14.191 1.742,-29.126 2.334,-43.691 v -33.824 h -46.297 c -0.208,22.369 0.426,44.779 -0.335,67.125 -1.248,13.734 -14.846,22.46 -27.8,21.994 -16.066,0.17 -47.898,-11.639 -47.898,-11.639 -0.08,-41.918 0.466,-94.409 0.692,-136.18 z"
            fill="url(#b)" id="path4" style="fill:url(#b)" />
        <path
            d="m 324.72,211.89 c -2.434,0.517 -0.489,-8.301 -1.113,-11.646 0.165,-21.15 -0.347,-42.323 0.283,-63.458 2.083,-26.829 26.991,-48.916 53.739,-48.288 h 78.766 c -0.073,90.884 0.147,181.78 -0.111,272.66 -1.039,26.834 -24.992,49.833 -51.681,50.308 -26.997,0.1 -53.997,0.015 -80.997,0.043 v -124.3 c 18.44,15.128 43.5,17.483 66.473,17.524 17.316,-0.006 34.534,-2.674 51.35,-6.67 v -22.772 c -18.953,9.446 -41.232,15.446 -62.243,10.019 -14.655,-3.65 -25.294,-17.812 -25.056,-32.937 -1.699,-15.728 7.524,-32.335 22.981,-37.011 19.189,-6.008 40.107,-1.413 58.096,6.397 3.854,2.019 7.765,4.521 6.222,-1.921 v -17.9 c -30.084,-7.156 -62.101,-9.792 -92.329,-2.004 -8.749,2.469 -17.271,6.212 -24.38,11.958 z"
            fill="url(#a)" id="path6" style="fill:url(#a)" /></g></svg>
