<?xml version="1.0" encoding="UTF-8" standalone="no"?>
<svg width="780" height="780" enable-background="new 0 0 780 500" version="1.1"
    viewBox="0 0 780 780" xml:space="preserve" id="svg2" sodipodi:docname="ic_card_visa.svg"
    inkscape:version="1.3.2 (091e20ef0f, 2023-11-25, custom)"
    xmlns:inkscape="http://www.inkscape.org/namespaces/inkscape"
    xmlns:sodipodi="http://sodipodi.sourceforge.net/DTD/sodipodi-0.dtd"
    xmlns="http://www.w3.org/2000/svg"><defs
     id="defs2" />
    <sodipodi:namedview id="namedview2" pagecolor="#ffffff" bordercolor="#666666"
        borderopacity="1.0" inkscape:showpageshadow="2" inkscape:pageopacity="0.0"
        inkscape:pagecheckerboard="0" inkscape:deskcolor="#d1d1d1" inkscape:zoom="0.77286771"
        inkscape:cx="416.63016" inkscape:cy="271.06838" inkscape:window-width="2560"
        inkscape:window-height="1305" inkscape:window-x="0" inkscape:window-y="0"
        inkscape:window-maximized="1" inkscape:current-layer="g2" />
    <g id="g2" transform="translate(0,140)"><rect
       width="780"
       height="780"
       fill="#0e4595"
       id="rect1"
       x="0"
       y="-140" />
        <path
            d="m 293.2,348.73 33.361,-195.76 h 53.36 L 346.536,348.73 Z M 539.31,157.19 c -10.57,-3.966 -27.137,-8.222 -47.822,-8.222 -52.725,0 -89.865,26.55 -90.18,64.603 -0.299,28.13 26.514,43.822 46.752,53.186 20.771,9.595 27.752,15.714 27.654,24.283 -0.131,13.121 -16.586,19.116 -31.922,19.116 -21.357,0 -32.703,-2.967 -50.227,-10.276 l -6.876,-3.11 -7.489,43.823 c 12.463,5.464 35.51,10.198 59.438,10.443 56.09,0 92.5,-26.246 92.916,-66.882 0.199,-22.269 -14.016,-39.216 -44.801,-53.188 -18.65,-9.055 -30.072,-15.099 -29.951,-24.268 0,-8.137 9.668,-16.839 30.557,-16.839 17.449,-0.27 30.09,3.535 39.938,7.5 l 4.781,2.26 7.232,-42.429 m 137.31,-4.223 h -41.232 c -12.773,0 -22.332,3.487 -27.941,16.234 l -79.244,179.4 h 56.031 c 0,0 9.16,-24.123 11.232,-29.418 6.125,0 60.555,0.084 68.338,0.084 1.596,6.853 6.49,29.334 6.49,29.334 h 49.514 L 676.62,152.961 Z m -65.418,126.41 c 4.412,-11.279 21.26,-54.723 21.26,-54.723 -0.316,0.522 4.379,-11.334 7.074,-18.684 l 3.605,16.879 c 0,0 10.219,46.729 12.354,56.528 z m -363.3,-126.41 -52.24,133.5 -5.567,-27.13 C 180.37,228.064 150.07,194.182 116.197,177.219 l 47.766,171.2 56.456,-0.064 84.004,-195.39 h -56.521"
            fill="#ffffff" id="path1" />
        <path
            d="M 146.92,152.96 H 60.879 l -0.681,4.073 c 66.938,16.204 111.23,55.363 129.62,102.41 l -18.71,-89.96 c -3.23,-12.395 -12.597,-16.094 -24.186,-16.527"
            fill="#f2ae14" id="path2" /></g></svg>
