<?xml version="1.0" encoding="UTF-8" standalone="no"?>
<svg width="780" height="780" enable-background="new 0 0 780 500" version="1.1"
    viewBox="0 0 780 780" xml:space="preserve" id="svg8" sodipodi:docname="ic_card_unionpay.svg"
    inkscape:version="1.3.2 (091e20ef0f, 2023-11-25, custom)"
    xmlns:inkscape="http://www.inkscape.org/namespaces/inkscape"
    xmlns:sodipodi="http://sodipodi.sourceforge.net/DTD/sodipodi-0.dtd"
    xmlns="http://www.w3.org/2000/svg"><defs
     id="defs8" />
    <sodipodi:namedview id="namedview8" pagecolor="#ffffff" bordercolor="#666666"
        borderopacity="1.0" inkscape:showpageshadow="2" inkscape:pageopacity="0.0"
        inkscape:pagecheckerboard="0" inkscape:deskcolor="#d1d1d1" inkscape:zoom="0.77286771"
        inkscape:cx="278.18474" inkscape:cy="373.2851" inkscape:window-width="2560"
        inkscape:window-height="1305" inkscape:window-x="0" inkscape:window-y="0"
        inkscape:window-maximized="1" inkscape:current-layer="g8" />
    <g id="g8" transform="translate(0,140)"><rect
       width="780"
       height="780"
       fill="#ffffff"
       id="rect1"
       x="0"
       y="-140" />
        <path
            d="m 216.4,69.791 h 142.39 c 19.87,0 32.287,16.406 27.63,36.47 l -66.333,287.48 c -4.656,20.063 -24.629,36.47 -44.498,36.47 h -142.39 c -19.87,0 -32.287,-16.406 -27.63,-36.47 L 171.9,106.261 c 4.657,-20.168 24.526,-36.47 44.395,-36.47 h 0.104 z"
            fill="#d10429" id="path1" />
        <path
            d="m 346.34,69.791 h 163.82 c 19.868,0 10.865,16.406 6.209,36.47 l -66.334,287.48 c -4.657,20.063 -3.208,36.47 -23.077,36.47 h -163.81 c -19.972,0 -32.287,-16.406 -27.527,-36.47 l 66.334,-287.48 c 4.656,-20.168 24.524,-36.47 44.498,-36.47 h -0.104 z"
            fill="#022e64" id="path2" />
        <path
            d="m 504.41,69.791 h 142.4 c 19.869,0 32.287,16.406 27.629,36.47 l -66.332,287.48 c -4.658,20.063 -24.631,36.47 -44.499,36.47 h -142.39 c -19.973,0 -32.287,-16.406 -27.63,-36.47 l 66.333,-287.48 c 4.656,-20.168 24.525,-36.47 44.394,-36.47 h 0.104 z"
            fill="#076f74" id="path3" />
        <path
            d="m 480.5,340.81 h 13.453 l 3.829,-13.063 h -13.351 z m 10.762,-35.95 -4.657,15.467 c 0,0 5.071,-2.613 7.865,-3.449 2.794,-0.627 6.933,-1.15 6.933,-1.15 l 3.208,-10.763 H 491.16 Z m 6.726,-22.153 -4.449,14.839 c 0,0 4.967,-2.3 7.761,-3.029 2.794,-0.732 6.933,-0.941 6.933,-0.941 l 3.208,-10.764 h -13.349 z m 29.701,0 -17.386,57.997 h 4.657 l -3.622,12.018 h -4.657 l -1.138,3.657 h -16.559 l 1.14,-3.657 h -33.529 l 3.311,-11.076 h 3.415 l 17.594,-58.938 3.518,-11.913 h 16.868 l -1.76,5.956 c 0,0 4.449,-3.239 8.797,-4.39 4.243,-1.148 28.665,-1.566 28.665,-1.566 l -3.622,11.809 h -5.795 z"
            fill="#fefefe" id="path4" />
        <path
            d="m 534.59,270.79 h 18.006 l 0.207,6.792 c -0.103,1.149 0.828,1.672 3.001,1.672 h 3.622 l -3.311,11.183 h -9.729 c -8.382,0.627 -11.59,-3.03 -11.383,-7.106 l -0.311,-12.437 z m 2.216,53.2 h -17.178 l 2.896,-9.927 h 19.662 l 2.794,-9.092 h -19.351 l 3.311,-11.182 h 53.812 l -3.312,11.182 h -18.109 l -2.794,9.092 h 18.109 l -3.002,9.927 h -19.558 l -3.518,4.18 h 7.968 l 1.966,12.54 c 0.207,1.254 0.207,2.09 0.62,2.613 0.415,0.418 2.795,0.627 4.14,0.627 h 2.38 l -3.725,12.227 h -6.106 c -0.93,0 -2.38,-0.104 -4.346,-0.104 -1.863,-0.21 -3.104,-1.255 -4.346,-1.882 -1.139,-0.522 -2.794,-1.881 -3.208,-4.284 l -1.863,-12.54 -8.899,12.331 c -2.795,3.866 -6.622,6.897 -13.143,6.897 h -12.418 l 3.311,-10.869 h 4.761 c 1.346,0 2.588,-0.521 3.52,-1.045 0.931,-0.418 1.758,-0.836 2.586,-2.193 z m -187.9,-27.2 h 45.429 l -3.312,10.973 h -18.109 l -2.793,9.299 h 18.627 l -3.415,11.287 h -18.524 l -4.553,15.152 c -0.517,1.672 4.45,1.881 6.209,1.881 l 9.313,-1.254 -3.726,12.54 h -20.904 c -1.654,0 -2.896,-0.209 -4.76,-0.627 -1.76,-0.418 -2.587,-1.254 -3.311,-2.403 -0.726,-1.254 -1.968,-2.195 -1.14,-4.912 l 6.002,-20.063 h -10.348 l 3.415,-11.495 h 10.348 l 2.794,-9.3 h -10.347 l 3.312,-10.974 z m 31.387,-19.835 h 18.627 l -3.415,11.39 h -25.457 l -2.794,2.404 c -1.242,1.15 -1.552,0.732 -3.105,1.568 -1.447,0.73 -4.449,2.193 -8.382,2.193 h -8.175 l 3.311,-10.972 h 2.484 c 2.07,0 3.52,-0.21 4.243,-0.627 0.828,-0.522 1.76,-1.672 2.69,-3.554 l 4.656,-8.568 h 18.525 l -3.208,6.27 z m 35.107,18.81 c 0,0 5.07,-4.701 13.764,-6.164 1.966,-0.418 14.384,-0.211 14.384,-0.211 l 1.863,-6.27 h -26.182 l -3.83,12.75 z m 24.629,4.807 h -25.975 l -1.552,5.329 h 22.56 c 2.69,-0.313 3.208,0.104 3.415,-0.104 l 1.655,-5.225 z m -33.735,-29.678 h 15.833 l -2.276,8.047 c 0,0 4.967,-4.075 8.485,-5.539 3.519,-1.254 11.383,-2.508 11.383,-2.508 l 25.664,-0.104 -8.796,29.469 c -1.449,5.016 -3.208,8.256 -4.243,9.823 -0.93,1.463 -2.07,2.821 -4.346,4.075 -2.173,1.15 -4.141,1.881 -6.002,1.986 -1.656,0.104 -4.347,0.209 -7.865,0.209 h -24.732 l -6.934,23.303 c -0.62,2.299 -0.931,3.447 -0.517,4.074 0.31,0.523 1.241,1.15 2.38,1.15 l 10.865,-1.045 -3.726,12.749 h -12.21 c -3.933,0 -6.727,-0.104 -8.693,-0.21 -1.862,-0.208 -3.83,0 -5.175,-1.044 -1.138,-1.045 -2.896,-2.403 -2.794,-3.763 0.104,-1.254 0.621,-3.344 1.45,-6.27 z"
            fill="#fefefe" id="path5" />
        <path
            d="m 452.43,317.79 -1.449,7.105 c -0.619,2.194 -1.138,3.867 -2.794,5.33 -1.759,1.463 -3.725,3.03 -8.484,3.03 l -8.796,0.418 -0.104,7.942 c -0.103,2.193 0.519,1.984 0.828,2.402 0.414,0.418 0.724,0.523 1.138,0.732 l 2.794,-0.21 8.384,-0.417 -3.52,11.704 h -9.624 c -6.726,0 -11.797,-0.21 -13.35,-1.463 -1.655,-1.046 -1.862,-2.3 -1.862,-4.599 l 0.62,-31.141 h 15.42 l -0.207,6.374 h 3.725 c 1.242,0 2.175,-0.104 2.691,-0.418 0.516,-0.314 0.828,-0.836 1.035,-1.567 l 1.552,-5.016 h 12.108 z m -219.37,-156 c -0.517,2.508 -10.451,48.592 -10.451,48.592 -2.174,9.3 -3.726,15.989 -8.9,20.273 -3.001,2.508 -6.52,3.657 -10.555,3.657 -6.52,0 -10.245,-3.239 -10.866,-9.404 l -0.104,-2.09 c 0,0 1.966,-12.436 1.966,-12.54 0,0 10.349,-42.009 12.212,-47.548 0.103,-0.313 0.103,-0.522 0.103,-0.627 -20.18,0.21 -23.801,0 -24.008,-0.313 -0.104,0.418 -0.621,3.03 -0.621,3.03 l -10.556,47.34 -0.932,3.97 -1.758,13.168 c 0,3.866 0.724,7.105 2.277,9.718 4.863,8.569 18.627,9.823 26.388,9.823 10.038,0 19.455,-2.195 25.767,-6.061 11.073,-6.584 13.97,-16.929 16.454,-26.02 l 1.242,-4.703 c 0,0 10.659,-43.576 12.522,-49.219 0.103,-0.314 0.103,-0.523 0.207,-0.627 -14.695,0.104 -18.938,0 -20.387,-0.314 z m 59.03,86.623 c -7.141,-0.105 -9.728,-0.105 -18.11,0.313 l -0.311,-0.627 c 0.724,-3.24 1.552,-6.374 2.173,-9.614 l 1.035,-4.389 c 1.552,-6.792 3.001,-14.839 3.208,-17.242 0.207,-1.463 0.62,-5.12 -3.519,-5.12 -1.759,0 -3.518,0.835 -5.38,1.671 -1.036,3.658 -3.002,13.899 -4.037,18.497 -2.07,9.823 -2.173,10.972 -3.104,15.78 l -0.621,0.626 c -7.347,-0.104 -9.934,-0.104 -18.42,0.314 l -0.414,-0.732 c 1.449,-5.852 2.794,-11.704 4.14,-17.556 3.518,-15.78 4.45,-21.84 5.38,-29.887 l 0.725,-0.418 c 8.279,-1.149 10.245,-1.463 19.248,-3.239 l 0.724,0.836 -1.345,5.016 c 1.552,-0.94 3.001,-1.881 4.553,-2.613 4.243,-2.09 8.9,-2.717 11.487,-2.717 3.932,0 8.279,1.15 10.038,5.748 1.656,4.075 0.62,9.091 -1.656,19.019 l -1.138,5.016 c -2.277,11.077 -2.69,13.062 -3.933,20.586 l -0.827,0.627 z m 29.057,0.027 c -4.346,0 -7.14,-0.104 -9.83,0 -2.691,0 -5.278,0.21 -9.314,0.314 l -0.207,-0.314 -0.207,-0.418 c 1.138,-4.18 1.656,-5.643 2.277,-7.106 0.517,-1.463 1.034,-2.926 2.07,-7.21 1.241,-5.539 2.069,-9.405 2.586,-12.854 0.621,-3.24 0.932,-6.06 1.346,-9.3 l 0.31,-0.209 0.31,-0.313 c 4.347,-0.627 7.038,-1.045 9.832,-1.463 2.794,-0.418 5.691,-0.94 10.141,-1.776 l 0.207,0.418 0.103,0.418 -2.482,10.345 c -0.828,3.449 -1.656,6.897 -2.38,10.346 -1.554,7.315 -2.277,10.032 -2.587,12.017 -0.414,1.881 -0.519,2.822 -1.14,6.584 l -0.414,0.313 -0.414,0.314 z m 45.942,-25.675 c -0.31,1.881 -1.966,8.883 -4.139,11.809 -1.553,2.194 -3.312,3.553 -5.382,3.553 -0.62,0 -4.14,0 -4.242,-5.33 0,-2.612 0.517,-5.33 1.138,-8.255 1.863,-8.465 4.14,-15.466 9.831,-15.466 4.45,0 4.76,5.225 2.794,13.689 z m 18.73,0.836 c 2.483,-11.077 0.518,-16.302 -1.862,-19.437 -3.726,-4.807 -10.348,-6.374 -17.178,-6.374 -4.141,0 -13.867,0.418 -21.525,7.524 -5.484,5.12 -8.071,12.122 -9.52,18.81 -1.554,6.792 -3.312,19.019 7.864,23.617 3.414,1.463 8.382,1.88 11.59,1.88 8.176,0 16.558,-2.298 22.87,-8.986 4.863,-5.434 7.036,-13.585 7.864,-17.034 z m 174.43,26.08 c -8.693,-0.104 -11.176,-0.104 -19.146,0.314 l -0.517,-0.627 c 2.173,-8.256 4.346,-16.616 6.312,-24.976 2.483,-10.868 3.104,-15.466 3.933,-21.84 l 0.62,-0.522 c 8.59,-1.254 10.97,-1.567 19.973,-3.239 l 0.207,0.731 c -1.656,6.897 -3.208,13.69 -4.864,20.482 -3.311,14.317 -4.45,21.632 -5.69,29.156 l -0.828,0.627 z"
            fill="#fefefe" id="path6" />
        <path
            d="m 547.75,224.16 c -0.414,1.776 -2.07,8.882 -4.243,11.808 -1.449,2.09 -4.967,3.449 -6.933,3.449 -0.621,0 -4.036,0 -4.243,-5.225 0,-2.613 0.517,-5.33 1.138,-8.256 1.863,-8.255 4.141,-15.257 9.831,-15.257 4.45,0 6.416,5.12 4.45,13.585 z m 17.075,0.836 c 2.482,-11.077 -7.658,-0.94 -9.21,-4.598 -2.484,-5.748 -0.933,-17.243 -10.866,-21.109 -3.829,-1.568 -12.832,0.418 -20.49,7.524 -5.381,5.016 -8.072,12.017 -9.52,18.705 -1.554,6.688 -3.312,19.02 7.76,23.304 3.52,1.567 6.727,1.985 9.935,1.776 11.178,-0.627 19.662,-17.661 25.976,-24.349 4.861,-5.329 5.69,1.986 6.415,-1.253 z m -129.94,23.413 c -7.14,-0.105 -9.624,-0.105 -18.006,0.313 l -0.311,-0.627 c 0.725,-3.24 1.553,-6.374 2.276,-9.614 l 0.931,-4.389 c 1.554,-6.792 3.105,-14.839 3.208,-17.242 0.207,-1.463 0.621,-5.12 -3.415,-5.12 -1.759,0 -3.62,0.835 -5.38,1.671 -0.932,3.658 -3.002,13.899 -4.037,18.497 -1.966,9.823 -2.173,10.972 -3.104,15.78 l -0.621,0.626 c -7.347,-0.104 -9.934,-0.104 -18.42,0.314 l -0.414,-0.732 c 1.449,-5.852 2.794,-11.704 4.14,-17.556 3.519,-15.78 4.347,-21.84 5.38,-29.887 l 0.621,-0.418 c 8.28,-1.149 10.35,-1.463 19.248,-3.239 l 0.726,0.836 -1.242,5.016 c 1.449,-0.94 3.001,-1.881 4.45,-2.613 4.243,-2.09 8.899,-2.717 11.485,-2.717 3.934,0 8.177,1.15 10.038,5.748 1.656,4.075 0.519,9.091 -1.759,19.019 l -1.138,5.016 c -2.38,11.077 -2.69,13.062 -3.934,20.586 l -0.826,0.627 z m 62.001,-86.519 -6.002,0.105 c -15.523,0.209 -21.732,0.104 -24.215,-0.209 -0.207,1.15 -0.621,3.135 -0.621,3.135 0,0 -5.588,25.916 -5.588,26.02 0,0 -13.246,55.176 -13.867,57.788 13.556,-0.209 19.041,-0.209 21.421,0.105 0.519,-2.613 3.622,-17.974 3.726,-17.974 0,0 2.69,-11.286 2.795,-11.704 0,0 0.826,-1.15 1.654,-1.672 h 1.242 c 11.694,0 24.836,0 35.186,-7.628 7.036,-5.225 11.797,-13.063 13.97,-22.468 0.517,-2.299 0.931,-5.016 0.931,-7.837 0,-3.658 -0.724,-7.21 -2.794,-10.032 -5.279,-7.42 -15.731,-7.524 -27.838,-7.629 z m 7.761,27.066 c -1.241,5.747 -4.967,10.659 -9.727,12.958 -3.933,1.985 -8.693,2.194 -13.66,2.194 h -3.208 l 0.207,-1.254 c 0,0 5.899,-25.916 5.899,-25.811 l 0.206,-1.359 0.104,-1.045 2.38,0.21 c 0,0 12.211,1.044 12.418,1.044 4.759,1.881 6.83,6.688 5.381,13.063 z m 127.21,8.666 -0.723,-0.836 c -8.797,1.776 -10.453,2.09 -18.525,3.24 l -0.619,0.626 c 0,0.105 -0.104,0.21 -0.104,0.418 v -0.104 c -6.002,14.107 -5.9,11.077 -10.762,22.154 0,-0.523 0,-0.836 -0.105,-1.359 l -1.242,-24.035 -0.723,-0.836 c -9.314,1.777 -9.521,2.09 -18.007,3.24 l -0.621,0.627 c -0.104,0.313 -0.104,0.627 -0.104,0.94 l 0.104,0.105 c 1.035,5.538 0.828,4.284 1.863,12.958 0.517,4.284 1.138,8.569 1.655,12.749 0.828,7.106 1.346,10.554 2.381,21.318 -5.797,9.613 -7.142,13.271 -12.729,21.734 l 0.31,0.836 c 8.384,-0.312 10.246,-0.312 16.455,-0.312 l 1.346,-1.568 c 4.656,-10.135 40.256,-71.79 40.256,-71.79 z m -302.72,6.922 c 4.76,-3.344 5.38,-7.942 1.345,-10.345 -4.036,-2.404 -11.176,-1.672 -15.937,1.672 -4.76,3.24 -5.277,7.837 -1.241,10.345 3.932,2.3 11.072,1.672 15.833,-1.672 z"
            fill="#fefefe" id="path7" />
        <path
            d="m 590.33,270.9 -6.935,12.019 c -2.173,4.075 -6.312,7.21 -12.728,7.21 l -11.073,-0.209 3.208,-10.868 h 2.173 c 1.138,0 1.966,-0.104 2.587,-0.418 0.621,-0.209 0.933,-0.627 1.449,-1.254 l 4.14,-6.583 h 17.282 z"
            fill="#fefefe" id="path8" /></g></svg>
