<?xml version="1.0" encoding="UTF-8" standalone="no"?>
<svg width="780" height="780" enable-background="new 0 0 780 500" version="1.1"
    viewBox="0 0 780 780" xml:space="preserve" id="svg3" sodipodi:docname="ic_card_diners.svg"
    inkscape:version="1.3.2 (091e20ef0f, 2023-11-25, custom)"
    xmlns:inkscape="http://www.inkscape.org/namespaces/inkscape"
    xmlns:sodipodi="http://sodipodi.sourceforge.net/DTD/sodipodi-0.dtd"
    xmlns="http://www.w3.org/2000/svg"><defs
     id="defs3" />
    <sodipodi:namedview id="namedview3" pagecolor="#ffffff" bordercolor="#666666"
        borderopacity="1.0" inkscape:showpageshadow="2" inkscape:pageopacity="0.0"
        inkscape:pagecheckerboard="0" inkscape:deskcolor="#d1d1d1" inkscape:zoom="0.5465"
        inkscape:cx="-312.90027" inkscape:cy="182.0677" inkscape:window-width="2560"
        inkscape:window-height="1305" inkscape:window-x="0" inkscape:window-y="0"
        inkscape:window-maximized="1" inkscape:current-layer="g3" />
    <g id="g3" transform="translate(0,140)"><rect
       width="780"
       height="780"
       fill="#0079be"
       id="rect1"
       x="0"
       y="-140"
       ry="0" />
        <path
            d="m 599.93,251.45 c 0,-99.415 -82.98,-168.13 -173.9,-168.1 h -78.242 c -92.003,-0.033 -167.73,68.705 -167.73,168.1 0,90.93 75.727,165.64 167.73,165.2 h 78.242 c 90.914,0.436 173.9,-74.294 173.9,-165.2 z"
            fill="#ffffff" id="path1" />
        <path
            d="m 348.28,97.43 c -84.07,0.027 -152.19,68.308 -152.21,152.58 0.02,84.258 68.144,152.53 152.21,152.56 84.09,-0.027 152.23,-68.303 152.24,-152.56 C 500.509,165.738 432.371,97.46 348.28,97.43 Z"
            fill="#0079be" id="path2" />
        <path
            d="m 252.07,249.6 c 0.08,-41.181 25.746,-76.297 61.94,-90.25 V 339.83 C 277.816,325.882 252.149,290.785 252.07,249.6 Z m 131,90.274 v -180.53 c 36.207,13.92 61.914,49.057 61.979,90.257 -0.065,41.212 -25.772,76.322 -61.979,90.269 z"
            fill="#ffffff" id="path3" /></g></svg>
