<?xml version="1.0" encoding="UTF-8" standalone="no"?>
<svg width="780" height="780" enable-background="new 0 0 780 500" version="1.1"
    viewBox="0 0 780 780" xml:space="preserve" id="svg4" sodipodi:docname="ic_card_elo.svg"
    inkscape:version="1.3.2 (091e20ef0f, 2023-11-25, custom)"
    xmlns:inkscape="http://www.inkscape.org/namespaces/inkscape"
    xmlns:sodipodi="http://sodipodi.sourceforge.net/DTD/sodipodi-0.dtd"
    xmlns="http://www.w3.org/2000/svg"><defs
     id="defs4" />
    <sodipodi:namedview id="namedview4" pagecolor="#ffffff" bordercolor="#666666"
        borderopacity="1.0" inkscape:showpageshadow="2" inkscape:pageopacity="0.0"
        inkscape:pagecheckerboard="0" inkscape:deskcolor="#d1d1d1" inkscape:zoom="0.77286771"
        inkscape:cx="452.85887" inkscape:cy="325.41145" inkscape:window-width="2560"
        inkscape:window-height="1305" inkscape:window-x="0" inkscape:window-y="0"
        inkscape:window-maximized="1" inkscape:current-layer="g4" />
    <g id="g4" transform="translate(0,140)"><rect
       width="780"
       height="780"
       fill="#000000"
       id="rect1"
       x="0"
       y="-140" />
        <path
            d="m 167.25,181.4 c 6.8,-2.3 14.1,-3.5 21.7,-3.5 33.2,0 60.9,23.601 67.2,54.9 l 47,-9.6 c -10.8,-53.2 -57.8,-93.301 -114.2,-93.301 -12.9,0 -25.3,2.101 -36.9,6 z"
            fill="#fff100" id="path1" />
        <path
            d="m 111.75,333.8 31.8,-36 c -14.2,-12.6 -23.1,-30.9 -23.1,-51.4 0,-20.399 8.9,-38.8 23.1,-51.3 l -31.8,-35.899 c -24.1,21.399 -39.3,52.5 -39.3,87.3 0,34.699 15.2,65.898 39.3,87.299 z"
            fill="#00a3df" id="path2" />
        <path
            d="m 256.15,260.2 c -6.4,31.3 -34,54.8 -67.2,54.8 -7.6,0 -14.9,-1.2 -21.8,-3.5 l -15.2,45.5 c 11.6,3.899 24.1,6 37,6 56.4,0 103.4,-40 114.2,-93.2 z"
            fill="#ee4023" id="path3" />
        <path
            d="m 459.75,292.4 c -7.8,7.601 -18.3,12.2 -29.9,12 -8,-0.1 -15.399,-2.5 -21.6,-6.5 l -15.601,24.801 c 10.7,6.699 23.2,10.699 36.801,10.899 19.699,0.3 37.699,-7.5 50.8,-20.2 z m -28.2,-101.1 c -39.2,-0.6 -71.6,30.8 -72.2,70 -0.2,14.7 4,28.5 11.5,39.9 l 128.8,-55.101 c -7.2,-30.899 -34.8,-54.2 -68.1,-54.799 m -42.7,75.599 c -0.2,-1.6 -0.3,-3.3 -0.3,-5 0.4,-23.1 19.4,-41.6 42.5,-41.199 12.6,0.199 23.8,5.899 31.3,14.899 z m 151.3,-107.6 v 137.3 l 23.801,9.9 -11.301,27.1 -23.6,-9.8 c -5.3,-2.3 -8.9,-5.8 -11.6,-9.8 -2.601,-4 -4.601,-9.601 -4.601,-17 v -137.7 z m 85.901,63.5 c 4.2,-1.4 8.6,-2.1 13.3,-2.1 20.3,0 37.101,14.399 41,33.5 l 28.7,-5.9 c -6.6,-32.5 -35.3,-56.9 -69.7,-56.9 -7.899,0 -15.5,1.301 -22.5,3.601 z m -33.901,92.9 19.4,-21.9 c -8.7,-7.7 -14.1,-18.9 -14.1,-31.4 0,-12.5 5.5,-23.699 14.1,-31.3 L 592.15,209.2 c -14.699,13 -24,32.1 -24,53.3 0,21.2 9.301,40.199 24,53.199 z m 88.201,-44.801 c -3.899,19.101 -20.8,33.5 -41,33.5 -4.6,0 -9.1,-0.8 -13.3,-2.199 l -9.3,27.8 c 7.1,2.399 14.7,3.7 22.6,3.7 34.4,0 63.101,-24.4 69.7,-56.9 z"
            fill="#ffffff" id="path4" /></g></svg>
